<svg xmlns="http://www.w3.org/2000/svg" xmlns:xlink="http://www.w3.org/1999/xlink" fill="none" version="1.1" width="14" height="21" viewBox="0 0 14 21"><defs><clipPath id="master_svg0_86_18717"><rect x="-1.310819387435913" y="-1.310819387435913" width="16.621638774871826" height="23.621638774871826" rx="0"/></clipPath><linearGradient x1="7" y1="-1" x2="7" y2="23" gradientUnits="userSpaceOnUse" id="master_svg1_25_04983"><stop offset="0%" stop-color="#044E44" stop-opacity="1"/><stop offset="100%" stop-color="#21C675" stop-opacity="1"/></linearGradient></defs><g clip-path="url(#master_svg0_86_18717)"><g><path d="M11.764,5.1759996L11.764,2.4400005L2.23599982,2.4400005L2.23599982,5.1759996L8.691999899999999,5.1759996L3.5559998,19L6.724,19L11.764,5.1759996Z" fill="url(#master_svg1_25_04983)" fill-opacity="1"/><path d="M7.6413169,20.310816L13.074819,5.4074979L13.074819,1.1291810999999998L0.92518049,1.1291810999999998L0.92518049,6.4868188L6.8066297,6.4868188L1.6706299,20.310816L7.6413169,20.310816ZM7.2936354,5.1759992L8.691999899999999,5.1759992L4.0430057,17.689178L3.5559998,18.999998L6.724,18.999998L11.763999,5.1759992L11.763999,2.4400003L2.23599976,2.4400003L2.23599976,5.1759992L7.2936354,5.1759992Z" fill-rule="evenodd" fill="#FFFFFF" fill-opacity="1"/></g></g></svg>