<svg xmlns="http://www.w3.org/2000/svg" xmlns:xlink="http://www.w3.org/1999/xlink" fill="none" version="1.1" width="14" height="21" viewBox="0 0 14 21"><defs><clipPath id="master_svg0_86_18712"><rect x="-1.310819387435913" y="-1.310819387435913" width="16.621638774871826" height="23.621638774871826" rx="0"/></clipPath><linearGradient x1="7" y1="-1" x2="7" y2="23" gradientUnits="userSpaceOnUse" id="master_svg1_25_04983"><stop offset="0%" stop-color="#044E44" stop-opacity="1"/><stop offset="100%" stop-color="#21C675" stop-opacity="1"/></linearGradient></defs><g clip-path="url(#master_svg0_86_18712)"><g><path d="M3.5079999,18.184C4.3479998,18.903999,5.4759998,19.264,6.9159999,19.264C8.428,19.264,9.6280003,18.832001,10.4920006,17.992001C11.332001,17.152,11.764,15.952000000000002,11.764,14.440001L11.764,12.88C11.764,11.344,11.403999,10.168,10.7080002,9.328C9.987999,8.5120001,8.9319997,8.1040001,7.54,8.1040001C6.6039996,8.1040001,5.836,8.368,5.1879997,8.8719997L5.1879997,5.1280003L11.427999,5.1280003L11.427999,2.4400005L2.4759998000000003,2.4400005L2.4759998000000003,11.872L5.1879997,11.872C5.5239997,11.128,6.0999999,10.743999,6.8919997,10.743999C7.5159998,10.743999,7.9719996,10.936,8.283999900000001,11.296C8.572,11.68,8.716000099999999,12.256001,8.716000099999999,13.048L8.716000099999999,14.296C8.716000099999999,15.040001,8.572,15.615998999999999,8.283999900000001,16C7.9719996,16.408001,7.5159998,16.6,6.9159999,16.6C6.3639998,16.6,5.908,16.455999,5.5959997,16.167999C5.2839999,15.879999000000002,5.1159997,15.472000000000001,5.1159997,14.968L5.1159997,14.823999L2.2359998,14.823999L2.2359998,15.184000000000001C2.2359998,16.455999,2.6679997,17.464001,3.5079999,18.184Z" fill="url(#master_svg1_25_04983)" fill-opacity="1"/><path d="M0.925180435,15.184000000000001Q0.925180435,17.696608,2.6549313000000003,19.179247Q4.2830954000000006,20.574818,6.9159994,20.574818Q9.7158375,20.574818,11.405745,18.93185Q13.074819,17.262962,13.074819,14.440003L13.074819,12.879999Q13.074819,10.12999,11.71736,8.4916744L11.70437,8.4759979L11.690901,8.4607325Q10.2195292,6.79318,7.5399981,6.7931824Q6.998384,6.7931824,6.4988189,6.886229L6.4988189,6.4388194L12.738818,6.4388194L12.738818,1.1291810999999998L1.16518049,1.1291810999999998L1.16518049,13.182818L6.0343108,13.182818L6.3826413,12.411515Q6.5437303,12.054818,6.8919997,12.054818Q7.163888,12.054818,7.2654724,12.129058Q7.4051805,12.377695,7.4051805,13.047999L7.4051805,14.295999Q7.4051805,14.987059,7.2353444,15.213507Q7.1774044,15.289181,6.9159994,15.289181Q6.57651,15.289181,6.4851012,15.204802999999998Q6.4268188,15.151005000000001,6.4268188,14.967999L6.4268188,13.513179L0.925180435,13.513179L0.925180435,15.184000000000001ZM8.283999900000001,11.295999C8.572,11.68,8.716000099999999,12.256001,8.716000099999999,13.047999L8.716000099999999,14.295999C8.716000099999999,15.039999000000002,8.572,15.615998999999999,8.283999900000001,15.999998000000001C7.9719992,16.408001,7.5159998,16.6,6.9159994,16.6C6.3639994,16.6,5.908,16.455999,5.5959997,16.167999C5.2839999,15.879999000000002,5.1159997,15.472000000000001,5.1159997,14.967999L5.1159997,14.823998L2.2359997,14.823998L2.2359997,15.184000000000001C2.2359997,15.519445000000001,2.2660435000000003,15.836533,2.3256911000000002,16.134817C2.4922248,16.967621,2.8895207999999997,17.653875,3.5079997,18.183998C4.3479996,18.903999,5.4759994,19.263998,6.9159994,19.263998C8.428,19.263998,9.6280003,18.832001,10.4920006,17.991999C11.332,17.152,11.763999,15.952000000000002,11.763999,14.44L11.763999,12.879999C11.763999,11.343999,11.403999,10.168,10.7080002,9.328C9.987999,8.5119991,8.9319997,8.1040001,7.54,8.1040001C7.1673155,8.1040001,6.8212647,8.145854,6.4988189,8.2280464C6.0114393,8.3522806,5.5779872,8.568676,5.1879997,8.8719997L5.1879997,5.1279998L11.427999,5.1279998L11.427999,2.4400003L2.4759997,2.4400003L2.4759997,11.871999L5.1879997,11.871999C5.5239997,11.128,6.0999994,10.743999,6.8919997,10.743999C7.5159998,10.743999,7.9719992,10.935999,8.283999900000001,11.295999Z" fill-rule="evenodd" fill="#FFFFFF" fill-opacity="1"/></g></g></svg>