<svg xmlns="http://www.w3.org/2000/svg" xmlns:xlink="http://www.w3.org/1999/xlink" fill="none" version="1.1" width="14" height="21" viewBox="0 0 14 21"><defs><clipPath id="master_svg0_86_18678"><rect x="-1.310819387435913" y="-1.310819387435913" width="16.621638774871826" height="23.621638774871826" rx="0"/></clipPath><linearGradient x1="7" y1="-1" x2="7" y2="23" gradientUnits="userSpaceOnUse" id="master_svg1_25_04983"><stop offset="0%" stop-color="#044E44" stop-opacity="1"/><stop offset="100%" stop-color="#21C675" stop-opacity="1"/></linearGradient></defs><g clip-path="url(#master_svg0_86_18678)"><g><path d="M3.3280001,18.136C4.1680002,18.879999,5.368,19.264,6.928,19.264C7.8640003,19.264,8.7280006,19.072001,9.4720001,18.664C10.2159996,18.280001,10.816,17.728001,11.224001,17.007999C11.632,16.288,11.848,15.448,11.848,14.464L11.848,14.007999C11.848,13.072001,11.656,12.28,11.296,11.632C10.912001,10.984,10.3600006,10.504,9.6399994,10.192C10.2639999,9.856,10.743999,9.4,11.08,8.8240004C11.416,8.2720003,11.584,7.623999599999999,11.584,6.9040003L11.584,6.5439997C11.584,5.224,11.176001,4.1440001,10.3360004,3.3520002C9.4960003,2.5599995,8.368,2.1760006,6.9040003,2.1760006C5.4160004,2.1760006,4.2640002,2.5599995,3.4240003,3.3280000999999997C2.5840001,4.1199999,2.1520002,5.1999998,2.1520002,6.592L2.1520002,7L5.0320001,7L5.0320001,6.592C5.0320001,6.04,5.1760001,5.6079998,5.4880004,5.2959995C5.8000002,4.9840002,6.2320004,4.8400002,6.7840004,4.8400002C7.336,4.8400002,7.7680001,5.0079994,8.0800004,5.3439999C8.3920002,5.7039995,8.5360003,6.184,8.5360003,6.7839994L8.5360003,7.1440000999999995C8.5360003,7.7679996,8.368,8.2480001,8.032000100000001,8.6079998C7.6960001,8.9679995,7.2160001,9.136,6.6160002,9.136L5.8000002,9.136L5.8000002,11.799999L6.6400003,11.799999C7.336,11.799999,7.888,11.992001,8.248000099999999,12.375999C8.6079998,12.76,8.8000002,13.312,8.8000002,14.032L8.8000002,14.464C8.8000002,15.111999999999998,8.632,15.639999,8.296,16.024C7.9360003,16.408001,7.48,16.6,6.8800001,16.6C6.256,16.6,5.776,16.455999,5.4640002,16.144001C5.1280003,15.855999,4.96,15.424,4.96,14.848L4.96,14.488L2.0320001999999997,14.488L2.0320001999999997,14.992001C2.0320001999999997,16.360001,2.4640001,17.392,3.3280001,18.136Z" fill="url(#master_svg1_25_04983)" fill-opacity="1"/><path d="M2.4658773,19.123447Q0.72118083,17.615986,0.72118083,14.992001L0.72118083,13.17718L6.2708192,13.17718L6.2708197,14.848001Q6.2708197,15.109110000000001,6.3170733,15.148755999999999L6.3552938,15.181515000000001L6.3908887,15.217110000000002Q6.4629598,15.289181,6.8800001,15.289181Q7.172648,15.289181,7.3240967,15.143298999999999Q7.4891806,14.9351,7.4891806,14.464L7.4891806,14.032Q7.4891806,13.48316,7.2917089,13.272523Q7.140111,13.110819,6.6399999,13.110819L4.4891808,13.110819L4.4891808,8.3108196L0.8411808599999999,8.3108196L0.8411808599999999,6.5919995Q0.8411808599999999,3.9616369999999996,2.5394993,2.3605781Q4.1750884,0.8651812000000001,6.9040003,0.8651812000000001Q9.6092463,0.8651812000000001,11.235239,2.3982613Q12.894819,3.9630075,12.894819,6.5439997L12.894819,6.9039998Q12.894819,8.363575,12.212256,9.484486Q12.018911,9.815933,11.780727,10.107815Q12.144285,10.492249,12.423687,10.963742L12.432995,10.979449L12.441862,10.995409Q13.158819,12.285931,13.158819,14.007999L13.158819,14.464Q13.158819,16.252407,12.364443,17.654247Q11.57379,19.04952,10.0876799,19.821323Q8.7043362,20.57482,6.928,20.57482Q4.1105003,20.57482,2.4658773,19.123447ZM9.4720001,18.664C8.7280006,19.072001,7.8640003,19.264,6.928,19.264C5.368,19.264,4.1680005,18.879999,3.3280001,18.136C2.6428614,17.546021,2.2293749,16.774937,2.0875407,15.798819000000002C2.0505136,15.543994999999999,2.0320001999999997,15.275198,2.0320001999999997,14.992001L2.0320001999999997,14.488L4.96,14.488L4.96,14.848C4.96,15.424,5.1280003,15.855999,5.4640002,16.144001C5.776,16.455999,6.2559996,16.6,6.8800001,16.6C7.48,16.6,7.9359999,16.408001,8.296,16.024C8.632,15.639999,8.8000002,15.111999999999998,8.8000002,14.464L8.8000002,14.032C8.8000002,13.312,8.6079998,12.76,8.248000099999999,12.375999C7.888,11.992001,7.3359995,11.8,6.6399999,11.8L5.8000002,11.8L5.8000002,9.136L6.6160002,9.136C7.2160001,9.136,7.6960001,8.9679995,8.032000100000001,8.6079998C8.3680005,8.2480001,8.5360003,7.7679996,8.5360003,7.1440000999999995L8.5360003,6.7839994C8.5360003,6.184,8.3920002,5.7039995,8.0800004,5.3439994C7.7679996,5.0079994,7.3359995,4.8400002,6.7840004,4.8400002C6.2320004,4.8400002,5.8000002,4.9840002,5.4880004,5.2959995C5.1760001,5.6079998,5.0320001,6.04,5.0320001,6.5919995L5.0320001,7L2.1520002,7L2.1520002,6.5919995C2.1520002,6.274971,2.1744082000000002,5.9741259,2.2189406,5.6891804C2.3699396999999998,4.7229972,2.7753105,3.9396214,3.4240003,3.3280000999999997C4.2640002,2.5599995,5.4160004,2.1760006,6.9040003,2.1760006C8.3680005,2.1760006,9.4960003,2.5599995,10.3360004,3.3520002C11.176001,4.1440001,11.584,5.224,11.584,6.5439997L11.584,6.9040003C11.584,7.623999599999999,11.416,8.2720003,11.08,8.8240004C10.983391,8.9896164,10.874876,9.14531,10.754457,9.291085C10.456068,9.652304,10.0845823,9.952609,9.6399994,10.191999C10.1025343,10.392431,10.495738,10.662195,10.819609,11.00129C10.999887,11.190045,11.158685,11.400282,11.296,11.632C11.656,12.28,11.848,13.072001,11.848,14.007999L11.848,14.464C11.848,15.448,11.632,16.288,11.224001,17.007999C10.815999,17.728001,10.2159996,18.280001,9.4720001,18.664ZM7.1057229,6.2229266Q7.0199709,6.1508198,6.7840004,6.1508198Q6.4869585,6.1508198,6.4148893,6.2228899Q6.3428197,6.2949591,6.3428197,6.5919995L6.3428197,7.825180100000001L6.6160002,7.825180100000001Q6.9695797,7.825180100000001,7.073719,7.713603000000001Q7.2251811,7.551322900000001,7.2251811,7.1440000999999995L7.2251811,6.7839994Q7.2251811,6.3854499,7.1057229,6.2229266Z" fill-rule="evenodd" fill="#FFFFFF" fill-opacity="1"/></g></g></svg>