<svg xmlns="http://www.w3.org/2000/svg" xmlns:xlink="http://www.w3.org/1999/xlink" fill="none" version="1.1" width="14" height="21" viewBox="0 0 14 21"><defs><clipPath id="master_svg0_86_18722"><rect x="-1.310819387435913" y="-1.310819387435913" width="16.621638774871826" height="23.621638774871826" rx="0"/></clipPath><linearGradient x1="7" y1="-1" x2="7" y2="23" gradientUnits="userSpaceOnUse" id="master_svg1_25_04983"><stop offset="0%" stop-color="#044E44" stop-opacity="1"/><stop offset="100%" stop-color="#21C675" stop-opacity="1"/></linearGradient></defs><g clip-path="url(#master_svg0_86_18722)"><g><path d="M3.256,17.968C4.1440000999999995,18.832001,5.3920002,19.264,7,19.264C8.5360003,19.264,9.7840004,18.832001,10.719999,17.944C11.656,17.056,12.112,15.832001000000002,12.112,14.271999L12.112,13.504C12.112,12.087999,11.728001,10.96,10.960001,10.12C10.1679993,9.304,9.1359997,8.8959999,7.8400002,8.8959999C7.3840003,8.8959999,7,8.9679995,6.6400003,9.136L10.0720005,2.4400005L6.7600002,2.4400005L2.9680002,9.808C2.6080003,10.504,2.3440000999999997,11.152,2.1760001,11.752C1.9840001,12.351999,1.8880001,12.976,1.8880001,13.624001L1.8880001,14.368C1.8880001,15.903998999999999,2.3440000999999997,17.104,3.256,17.968ZM8.440000099999999,16.024C8.0799999,16.408001,7.6000004,16.6,7,16.6C6.4000001,16.6,5.9200001,16.408001,5.5840001,16.024C5.224,15.639999,5.0560002,15.111999999999998,5.0560002,14.440001L5.0560002,13.648C5.0560002,12.976,5.224,12.448,5.5840001,12.064C5.9200001,11.704,6.4000001,11.512,7,11.512C7.6000004,11.512,8.0799999,11.704,8.440000099999999,12.064C8.8000002,12.448,8.9680004,12.976,8.9680004,13.672L8.9680004,14.416C8.9680004,15.111999999999998,8.8000002,15.639999,8.440000099999999,16.024Z" fill="url(#master_svg1_25_04983)" fill-opacity="1"/><path d="M2.348157,18.913582Q0.577180848,17.230707,0.577180848,14.367999L0.577180848,13.624Q0.577180885,12.459785,0.92019495,11.375591Q1.20865822,10.356207,1.8024811,9.208156L5.9603906,1.1291810999999998L12.216822,1.1291810999999998L8.8692331,7.6604890999999995Q10.665664,7.9346704,11.900619,9.207045L11.914233,9.221071L11.927423,9.235498Q13.422818,10.871088,13.422818,13.504L13.422818,14.271999Q13.422818,17.186659,11.622187,18.894945Q9.8515196,20.574818,7,20.574818Q4.0609064,20.574818,2.348157,18.913582ZM8.2294149,8.9088049C8.102355,8.9002676,7.9725585,8.8959999,7.8400002,8.8959999C7.3840003,8.8959999,7,8.9679995,6.6399999,9.136L7.4261293,7.6022224000000005L9.4001465,3.7508197L10.0719995,2.4400005L6.7600002,2.4400005L2.9680002,9.808C2.6080003,10.503999,2.3440000999999997,11.151999,2.176,11.752Q1.8880001,12.651999,1.8880001,13.624L1.8880001,14.367999Q1.8880001,16.671999,3.2559998,17.968C4.1440000999999995,18.832001,5.3920002,19.263998,7,19.263998C8.5360003,19.263998,9.7840004,18.832001,10.719999,17.944C11.656,17.056,12.111999,15.832001000000002,12.111999,14.271999L12.111999,13.504C12.111999,12.087999,11.728001,10.959999,10.960001,10.119999C10.2490072,9.387463,9.3446007,8.9837313,8.2294149,8.9088049ZM5.5840001,16.024C5.9200001,16.408001,6.3999996,16.6,7,16.6C7.6000004,16.6,8.0799999,16.408001,8.4399996,16.024C8.8000002,15.639999,8.9680004,15.111999999999998,8.9680004,14.416L8.9680004,13.672C8.9680004,12.975999,8.8000002,12.448,8.4399996,12.064C8.0799999,11.704,7.6000004,11.512,7,11.512C6.3999996,11.512,5.9200001,11.704,5.5840001,12.064C5.224,12.448,5.0560002,12.975999,5.0560002,13.648L5.0560002,14.44C5.0560002,15.111999999999998,5.224,15.639999,5.5840001,16.024ZM7.4971032,12.975629Q7.3290009,12.82282,7,12.82282Q6.6688204,12.82282,6.5402908,12.960525Q6.3668194,13.14556,6.3668194,13.648L6.3668194,14.44Q6.3668194,14.94244,6.5402927,15.127478L6.5556788,15.143889999999999L6.5704932,15.160820000000001Q6.6828079,15.289181,7,15.289181Q7.3321114,15.289181,7.4837074,15.127478Q7.6571813,14.942438,7.6571813,14.416L7.6571813,13.672Q7.6571813,13.166296,7.4971032,12.975629Z" fill-rule="evenodd" fill="#FFFFFF" fill-opacity="1"/></g></g></svg>