<svg xmlns="http://www.w3.org/2000/svg" xmlns:xlink="http://www.w3.org/1999/xlink" fill="none" version="1.1" width="14" height="21" viewBox="0 0 14 21"><defs><clipPath id="master_svg0_86_18661"><rect x="-1.310819387435913" y="-1.310819387435913" width="16.621638774871826" height="23.621638774871826" rx="0"/></clipPath><linearGradient x1="7" y1="-1" x2="7" y2="23" gradientUnits="userSpaceOnUse" id="master_svg1_25_04983"><stop offset="0%" stop-color="#044E44" stop-opacity="1"/><stop offset="100%" stop-color="#21C675" stop-opacity="1"/></linearGradient></defs><g clip-path="url(#master_svg0_86_18661)"><g><path d="M7.7320004,9.375999L2.2360001,16.504L2.2360001,19L11.836,19L11.836,16.24L6.1960001,16.24L10.3239994,10.888C10.828001,10.24,11.188,9.616,11.452,9.016C11.716,8.4160004,11.836,7.743999499999999,11.836,7.0240002L11.836,6.6160002C11.836,5.8000002,11.644001,5.0559998,11.26,4.3839998C10.8519993,3.7119999000000004,10.2999992,3.184,9.5799999,2.7759991C8.836,2.368,7.9960003,2.1760006,7.0360003,2.1760006C6.052,2.1760006,5.1880002,2.368,4.4440002,2.7520008C3.7,3.1359997,3.1480002,3.6639996000000004,2.7640002,4.3359995C2.3560001,5.0079994,2.1640002000000003,5.776,2.1640002000000003,6.6400003L2.1640002000000003,7.2159996L5.2120004,7.2159996L5.2120004,6.8319998C5.2120004,6.2080002,5.3559999,5.7279997,5.6680002,5.368C5.98,5.0079994,6.388,4.8400002,6.9160004,4.8400002C7.4440002,4.8400002,7.8760004,5.0079994,8.188000200000001,5.3439999C8.5,5.6800003,8.6440001,6.1359997,8.6440001,6.7119999L8.6440001,7.0480003C8.6440001,7.791999799999999,8.3320003,8.5599995,7.7320004,9.375999Z" fill="url(#master_svg1_25_04983)" fill-opacity="1"/><path d="M6.6843596,8.5880013Q7.33318,7.7014055,7.33318,7.0480003L7.33318,6.7119994Q7.33318,6.349822,7.2274389,6.2359471Q7.1483927,6.1508198,6.9160004,6.1508198Q6.7241573,6.1508198,6.6585712,6.2264957Q6.5228195,6.383132,6.5228195,6.8319998L6.5228195,8.5268183L0.85318086,8.5268183L0.85318086,6.6399999Q0.85318086,4.9670749,1.6345218400000001,3.6706014Q2.4073139,2.3280747,3.8428006,1.5871799000000002Q5.2416711,0.8651811,7.0360003,0.8651811Q8.8217092,0.8651811,10.2262478,1.6355574000000002Q11.5961,2.4118073,12.380471,3.7037129L12.389488,3.7185639999999998L12.398108,3.7336488Q13.146819,5.0438871,13.146819,6.6159997L13.146819,7.0240002Q13.146819,8.4189024,12.651813,9.543917Q12.159142,10.663625,11.361947,11.688569L8.8624635,14.929179L13.146819,14.929179L13.146819,20.310818L0.925180748,20.310818L0.92518089,16.057329L6.6843596,8.5880013ZM7.7319999,9.375999L2.2360001,16.504L2.2360001,19L11.835999,19L11.835999,16.24L6.1960001,16.24L7.2070355,14.929179L10.3239994,10.888C10.828001,10.239999,11.188,9.615999,11.451999,9.016C11.716,8.4160004,11.835999,7.743999499999999,11.835999,7.0240002L11.835999,6.6159997C11.835999,5.8000002,11.644001,5.0559993,11.259999,4.3839998C10.8519993,3.7119999000000004,10.2999992,3.184,9.5799999,2.7759988C8.836,2.3679998,7.9960003,2.1760004,7.0360003,2.1760004C6.0519996,2.1760004,5.1880002,2.3679998,4.4440002,2.7520008C3.7,3.1359997,3.1480002,3.6639996000000004,2.7640002,4.335999C2.4755589000000002,4.811079,2.2950739000000002,5.3341393,2.2140652000000003,5.9051805C2.1804872,6.1418767,2.1640002000000003,6.3868165,2.1640002000000003,6.6399999L2.1640002000000003,7.2159996L5.2120004,7.2159996L5.2120004,6.8319998C5.2120004,6.2080002,5.3559999,5.7279997,5.6680002,5.3679996C5.98,5.0079994,6.3879995,4.8400002,6.9160004,4.8400002C7.4439998,4.8400002,7.8759999,5.0079994,8.187999699999999,5.3439999C8.5,5.6799998,8.6439996,6.1359992,8.6439996,6.7119994L8.6439996,7.0480003C8.6439996,7.791999799999999,8.3319998,8.5599995,7.7319999,9.375999Z" fill-rule="evenodd" fill="#FFFFFF" fill-opacity="1"/></g></g></svg>