<svg xmlns="http://www.w3.org/2000/svg" xmlns:xlink="http://www.w3.org/1999/xlink" fill="none" version="1.1" width="14" height="21" viewBox="0 0 14 21"><defs><clipPath id="master_svg0_86_18755"><rect x="-1.310819387435913" y="-1.310819387435913" width="16.621638774871826" height="23.621638774871826" rx="0"/></clipPath><linearGradient x1="7" y1="-1" x2="7" y2="23" gradientUnits="userSpaceOnUse" id="master_svg1_25_04983"><stop offset="0%" stop-color="#044E44" stop-opacity="1"/><stop offset="100%" stop-color="#21C675" stop-opacity="1"/></linearGradient></defs><g clip-path="url(#master_svg0_86_18755)"><g><path d="M3.28,17.823999C4.072,18.784,5.3200002,19.264,7,19.264C8.6800003,19.264,9.9280005,18.784,10.744,17.823999C11.536,16.864,11.944,15.448,11.944,13.552L11.944,7.696000099999999C11.944,5.8719997,11.536,4.5039997,10.744,3.5679998C9.9280005,2.632,8.6800003,2.1760006,7,2.1760006C5.3920002,2.1760006,4.168,2.632,3.3280001,3.5679998C2.4879999,4.5039997,2.056,5.8959999,2.056,7.696000099999999L2.056,13.552C2.056,15.448,2.464,16.888,3.28,17.823999ZM8.440000099999999,15.783999999999999C8.1760001,16.288,7.6960001,16.528,7,16.528C6.3039999,16.528,5.848,16.288,5.6079998,15.783999999999999C5.3439999,15.304001,5.224,14.464,5.224,13.288L5.224,8.1519995C5.224,6.9759998,5.3439999,6.1359997,5.5840001,5.6560001C5.8239999,5.1759996,6.3039999,4.9359999,7,4.9359999C7.6960001,4.9359999,8.1760001,5.1759996,8.440000099999999,5.6560001C8.6800003,6.1359997,8.8000002,6.9759998,8.8000002,8.1519995L8.8000002,13.288C8.8000002,14.464,8.6800003,15.304001,8.440000099999999,15.783999999999999Z" fill="url(#master_svg1_25_04983)" fill-opacity="1"/><path d="M2.2802315,18.671907Q0.74518074,16.898424,0.74518074,13.552L0.74518074,7.696000099999999Q0.74518074,4.4834285,2.3524328,2.6924908Q3.9923267,0.8651812000000001,7.000001,0.8651812000000001Q10.126709,0.8651812000000001,11.744662,2.7212863Q13.25482,4.5060177,13.25482,7.696000099999999L13.25482,13.552Q13.25482,16.84038,11.742765,18.672949Q10.1261768,20.57482,7.0000005,20.57482Q3.8613913,20.57482,2.2802315,18.671907ZM3.28,17.823999C4.0720003,18.784,5.3200002,19.264,7.0000005,19.264Q9.5200005,19.264,10.744,17.823999C11.536,16.864,11.944,15.448,11.944,13.552L11.944,7.696000099999999C11.944,5.8719997,11.536,4.5039997,10.744,3.5679998C9.9280005,2.632,8.6800003,2.1760006,7.0000005,2.1760006C5.3920002,2.1760006,4.1680002,2.632,3.3280001,3.5679998C2.488,4.5039997,2.0560001000000003,5.8960004,2.0560001000000003,7.696000099999999L2.0560001000000003,13.552C2.0560001000000003,15.448,2.4640001,16.888,3.28,17.823999ZM7.0000005,16.528C7.6960001,16.528,8.1760001,16.288,8.4400005,15.783999999999999C8.6800003,15.304001,8.8000002,14.464001,8.8000002,13.288001L8.8000002,8.1519995C8.8000002,6.9759998,8.6800003,6.1359997,8.4400005,5.6560001Q8.0439997,4.9360003,7.0000005,4.9360003C6.3039999,4.9360003,5.8239999,5.1759996,5.5840001,5.6560001C5.3439999,6.1359997,5.2240005,6.9759998,5.2240005,8.1519995L5.2240005,13.288001C5.2240005,14.464001,5.3439999,15.304001,5.6079998,15.783999999999999C5.8480005,16.288,6.3039999,16.528,7.0000005,16.528ZM7.2753119,15.182655Q7.2799315,15.180620000000001,7.2841473,15.178459L7.2788358,15.175771999999998L7.2753119,15.182655ZM7.489181,13.288001Q7.489181,14.730347,7.2748256,15.182869Q7.1963573,15.217179999999999,7.0000005,15.217179999999999Q6.8489094,15.217179999999999,6.7816811,15.199843999999999L6.7750187,15.185852L6.7565603,15.152292Q6.5348196,14.749127,6.5348186,13.288L6.5348196,8.1519995Q6.5348196,6.7359042,6.7414432,6.2739305Q6.8236203,6.2468195,7.0000005,6.2468195Q7.2019458,6.2468195,7.2871513,6.2843809Q7.489181,6.7517385,7.489181,8.1519995L7.489181,13.288001ZM7.2927876,6.2869673L7.2914395,6.2877083L7.2957845,6.2884321Q7.2942963,6.2876878,7.2927876,6.2869673Z" fill-rule="evenodd" fill="#FFFFFF" fill-opacity="1"/></g></g></svg>