<svg xmlns="http://www.w3.org/2000/svg" xmlns:xlink="http://www.w3.org/1999/xlink" fill="none" version="1.1" width="14" height="21" viewBox="0 0 14 21"><defs><clipPath id="master_svg0_86_18683"><rect x="-1.310819387435913" y="-1.310819387435913" width="16.621638774871826" height="23.621638774871826" rx="0"/></clipPath><linearGradient x1="7" y1="-1" x2="7" y2="23" gradientUnits="userSpaceOnUse" id="master_svg1_25_04983"><stop offset="0%" stop-color="#044E44" stop-opacity="1"/><stop offset="100%" stop-color="#21C675" stop-opacity="1"/></linearGradient></defs><g clip-path="url(#master_svg0_86_18683)"><g><path d="M11.068,16.360001L12.412001,16.360001L12.412001,13.6L11.068,13.6L11.068,9.712L7.9240003,9.712L7.9240003,13.6L4.7320004,13.6L9.46,2.4400005L6.316,2.4400005L1.5880002,13.6L1.5880002,16.360001L7.9240003,16.360001L7.9240003,19L11.068,19L11.068,16.360001Z" fill="url(#master_svg1_25_04983)" fill-opacity="1"/><path d="M11.067999,16.359999L11.067999,19L7.9240003,19L7.9240003,16.359999L1.5880002,16.359999L1.5880002,13.599999L6.316,2.4400003L9.4599991,2.4400003L8.9046631,3.7508197L6.9345107,8.4011803L6.6131806,9.159649L5.2873363,12.28918L4.7320004,13.599999L7.9240003,13.599999L7.9240003,9.712L11.067999,9.712L11.067999,13.599999L12.412001,13.599999L12.412001,16.359999L11.067999,16.359999ZM12.378819,17.670818L12.378819,20.31082L6.6131806,20.31082L6.6131806,17.670818L0.27718078,17.670818L0.27718078,13.333784L5.4477334,1.1291809000000002L11.438938,1.1291810999999998L8.3581133,8.4011803L12.378819,8.4011803L12.378819,12.28918L13.72282,12.28918L13.72282,17.670818L12.378819,17.670818Z" fill-rule="evenodd" fill="#FFFFFF" fill-opacity="1"/></g></g></svg>