<svg xmlns="http://www.w3.org/2000/svg" xmlns:xlink="http://www.w3.org/1999/xlink" fill="none" version="1.1" width="14" height="21" viewBox="0 0 14 21"><defs><clipPath id="master_svg0_86_18727"><rect x="-1.310819387435913" y="-1.310819387435913" width="16.621638774871826" height="23.621638774871826" rx="0"/></clipPath><linearGradient x1="7" y1="-1" x2="7" y2="23" gradientUnits="userSpaceOnUse" id="master_svg1_25_04983"><stop offset="0%" stop-color="#044E44" stop-opacity="1"/><stop offset="100%" stop-color="#21C675" stop-opacity="1"/></linearGradient></defs><g clip-path="url(#master_svg0_86_18727)"><g><path d="M4.3719997,18.664C5.1399999,19.072001,6.0039997,19.264,6.9879999,19.264C7.9719996,19.264,8.8359995,19.072001,9.6280003,18.664C10.3959999,18.280001,10.996,17.728001,11.452,16.983999C11.884,16.24,12.1,15.399999999999999,12.1,14.416L12.1,13.864C12.1,13.144,11.932,12.472,11.596,11.823999C11.236,11.2,10.756,10.696,10.1079998,10.312C10.612,10,11.02,9.568,11.332,9.016C11.644,8.4639997,11.812,7.816000000000001,11.812,7.1199999L11.812,6.6879997C11.812,5.8719997,11.62,5.1280003,11.236,4.4320002C10.852,3.7360001,10.3000002,3.184,9.5799999,2.7759991C8.8359995,2.368,7.9959998,2.1760006,7.0120001,2.1760006C6.0279999,2.1760006,5.1879997,2.368,4.467999900000001,2.7759991C3.7479999,3.184,3.1959999,3.7360001,2.8119998,4.4320002C2.4039998000000002,5.1280003,2.2119998,5.8719997,2.2119998,6.6879997L2.2119998,7.1199999C2.2119998,7.8400002,2.3799999,8.4639997,2.6919999,9.016C3.0039997,9.568,3.4119999,10,3.9159999,10.312C3.2679999,10.672,2.7879999,11.176001,2.4279999,11.799999C2.0679998,12.448,1.8999999,13.144,1.8999999,13.888L1.8999999,14.440001C1.8999999,15.399999999999999,2.1159998,16.24,2.5719998,16.983999C3.0039997,17.728001,3.6039999,18.280001,4.3719997,18.664ZM8.308000100000001,8.5120001C7.9959998,8.8719997,7.5639997,9.064,7.0120001,9.064C6.46,9.064,6.0279999,8.8959999,5.7160001,8.5360003C5.4039998,8.1759996,5.2360001,7.720000300000001,5.2360001,7.1440000999999995L5.2360001,6.6879997C5.2360001,6.1599998,5.4039998,5.7279997,5.7399998,5.368C6.052,5.0079994,6.4839997,4.8400002,7.0120001,4.8400002C7.54,4.8400002,7.9719996,5.0079994,8.308000100000001,5.368C8.6199999,5.7279997,8.7880001,6.1599998,8.7880001,6.6879997L8.7880001,7.1440000999999995C8.7880001,7.696000099999999,8.6199999,8.1519995,8.308000100000001,8.5120001ZM8.5240002,16C8.1399999,16.408001,7.6359997,16.6,7.0120001,16.6C6.3639998,16.6,5.8599997,16.384001,5.5,15.975999999999999C5.1399999,15.568000999999999,4.948,15.040001,4.948,14.392L4.948,13.816C4.948,13.167999,5.1399999,12.664,5.5239997,12.256001C5.908,11.848,6.4119997,11.656,7.0120001,11.656C7.6359997,11.656,8.1399999,11.848,8.5240002,12.256001C8.8839998,12.664,9.0760002,13.167999,9.0760002,13.816L9.0760002,14.392C9.0760002,15.063998999999999,8.8839998,15.591999000000001,8.5240002,16Z" fill="url(#master_svg1_25_04983)" fill-opacity="1"/><path d="M3.7713957,19.829216Q2.2765051,19.07696,1.4462603299999999,17.655674Q0.589180462,16.248758,0.589180462,14.440001L0.589180462,13.888001Q0.5891803879999999,12.410734,1.29258782,11.144952Q1.5768087,10.652304,1.9343423,10.246986Q1.7268332,9.972354,1.5508491,9.660998Q0.9011803899999999,8.5115833,0.9011803899999999,7.1199999L0.9011803899999999,6.6879997Q0.9011803899999999,5.1084261,1.672558,3.7838135Q2.4269822999999997,2.4259274,3.8217504,1.6355564999999999Q5.1812396,0.8651811,7.0120006,0.8651811Q8.8217077,0.8651811,10.2262497,1.6355574000000002Q11.628689,2.4302738,12.383725,3.7987738Q13.122819,5.1383834,13.122819,6.6879997L13.122819,7.1199999Q13.122819,8.5115843,12.47315,9.660998Q12.293185,9.979397,12.080254,10.259391Q12.445381,10.673164,12.731413,11.168953L12.74613,11.194462L12.759686,11.220606Q13.410819,12.476363,13.410819,13.864001L13.410819,14.416Q13.410819,16.220968,12.585582,17.64221L12.577753,17.655691L12.569608,17.668982Q11.694944,19.096069,10.2282991,19.829285Q8.7810831,20.574821,6.9879999,20.574821Q5.1840143,20.574821,3.7713957,19.829216ZM4.3719997,18.664C5.1399999,19.072001,6.0039997,19.264,6.9879999,19.264C7.9719996,19.264,8.8359995,19.072001,9.6280003,18.664C10.3959999,18.280001,10.996,17.728001,11.452,16.983999C11.884,16.24,12.1,15.399999999999999,12.1,14.416L12.1,13.864001C12.1,13.144,11.932,12.472,11.596,11.823999C11.464121,11.595409,11.316138,11.382923,11.149693,11.186542C10.861777,10.846844,10.518618,10.555329,10.1079998,10.312C10.4928036,10.073789,10.821646,9.765624,11.094526,9.387508C11.179053,9.270384,11.258212,9.146548,11.332,9.016C11.644,8.4639997,11.812,7.816000000000001,11.812,7.1199999L11.812,6.6879997C11.812,5.8719997,11.62,5.1280003,11.236001,4.4320006C10.852,3.7360001,10.3000002,3.184,9.5799999,2.7759991C8.8359995,2.368,7.9959998,2.1760006,7.0120006,2.1760006C6.0279999,2.1760006,5.1879997,2.368,4.467999900000001,2.7759991Q3.388,3.3880005000000004,2.8119998,4.4320006C2.4039998000000002,5.1280003,2.2119998,5.8719997,2.2119998,6.6879997L2.2119998,7.1199999C2.2119998,7.8400002,2.3799999,8.4639997,2.6919999,9.016C2.7645688,9.144391,2.8423316,9.26629,2.9252877,9.381698C3.1989894,9.762468,3.5292268,10.07257,3.9159999,10.312C3.4997489,10.543251,3.1528199,10.83392,2.8624897,11.177646C2.7008474,11.369017,2.5567493,11.576834,2.4279999,11.799999C2.0679998,12.448,1.8999999,13.144,1.8999999,13.888001L1.8999999,14.440001C1.8999999,15.399999999999999,2.1159999000000003,16.24,2.5719998,16.983999C3.0039997,17.728001,3.6039999,18.280001,4.3719997,18.664ZM5.7400002,5.3680005C5.4039998,5.7279997,5.2360001,6.1600003,5.2360001,6.6879997L5.2360001,7.1440000999999995C5.2360001,7.720000300000001,5.4039998,8.1759996,5.7160001,8.5360003C6.0279999,8.8959999,6.46,9.064,7.0120006,9.064C7.5639997,9.064,7.9959998,8.8719997,8.3080006,8.5120001C8.6199999,8.1519995,8.7880001,7.696000099999999,8.7880001,7.1440000999999995L8.7880001,6.6879997C8.7880001,6.1600003,8.6199999,5.7279997,8.3080006,5.3680005C7.9719996,5.0079999,7.54,4.8400002,7.0120006,4.8400002C6.4839997,4.8400002,6.052,5.0079999,5.7400002,5.3680005ZM7.3353486,6.2480984Q7.2301016,6.1508193,7.0120006,6.1508193Q6.7961578,6.1508193,6.7305732,6.2264948L6.7147574,6.2447433L6.6982808,6.2623978Q6.5468197,6.4246769,6.5468197,6.6879997L6.5468197,7.144000999999999Q6.5468197,7.4931746,6.7065716,7.6775044999999995Q6.7721581,7.753180499999999,7.0120006,7.753180499999999Q7.2310433,7.753180499999999,7.3174276,7.6535063Q7.4771814,7.4691744,7.4771814,7.1440000999999995L7.4771814,6.6879997Q7.4771814,6.426836,7.3353486,6.2480984ZM7.0120006,16.6C7.6360002,16.6,8.1400003,16.408001,8.5240002,16C8.8839998,15.591999000000001,9.0760002,15.063998999999999,9.0760002,14.392L9.0760002,13.816001C9.0760002,13.168,8.8839998,12.664,8.5240002,12.256001C8.1400003,11.848,7.6360002,11.656001,7.0120006,11.656001C6.4119997,11.656001,5.9080005,11.848,5.5239997,12.256001C5.1399999,12.664,4.948,13.168,4.948,13.816001L4.948,14.392C4.948,15.040001,5.1399999,15.568000999999999,5.5,15.975999999999999C5.8599997,16.384001,6.3640003,16.6,7.0120006,16.6ZM7.7651815,14.392Q7.7651815,14.862609,7.5557313,15.115611999999999Q7.3784328,15.289181,7.0120006,15.289181Q6.6421204,15.289181,6.4829054,15.108736Q6.2588196,14.854774,6.2588196,14.392L6.2588196,13.816001Q6.2588196,13.387841,6.4785371,13.154392Q6.6550751,12.96682,7.0120006,12.96682Q7.3786802,12.96682,7.5559716,13.140624Q7.7651815,13.392039,7.7651815,13.816001L7.7651815,14.392Z" fill-rule="evenodd" fill="#FFFFFF" fill-opacity="1"/></g></g></svg>