<svg xmlns="http://www.w3.org/2000/svg" xmlns:xlink="http://www.w3.org/1999/xlink" fill="none" version="1.1" width="14" height="21" viewBox="0 0 14 21"><defs><clipPath id="master_svg0_86_18647"><rect x="-1.310819387435913" y="-1.310819387435913" width="16.621638774871826" height="23.621638774871826" rx="0"/></clipPath><linearGradient x1="7" y1="-1" x2="7" y2="23" gradientUnits="userSpaceOnUse" id="master_svg1_25_04983"><stop offset="0%" stop-color="#044E44" stop-opacity="1"/><stop offset="100%" stop-color="#21C675" stop-opacity="1"/></linearGradient></defs><g clip-path="url(#master_svg0_86_18647)"><g><path d="M3.6879999999999997,7.9359999000000006L6.4719999,5.9200001L6.4719999,19L9.6160002,19L9.6160002,2.4400005L6.4719999,2.4400005L3.6879999999999997,4.5279999L3.6879999999999997,7.9359999000000006Z" fill="url(#master_svg1_25_04983)" fill-opacity="1"/><path d="M2.37718064,3.8725905000000003L2.37718055,10.503626L4.4568086000000005,8.9976883L5.1611805,8.4876261L5.1611805,20.31082L10.9268198,20.31082L10.9268198,1.1291810999999998L6.0350604,1.1291810999999998L2.37718064,3.8725905000000003ZM5.1611805,6.8692141L6.4719999,5.9200001L6.4719999,19L9.6160007,19L9.6160007,2.4400005L6.4719999,2.4400005L3.6879999999999997,4.5279999L3.6879999999999997,7.9359999000000006L4.9988196,6.9867864L5.1611805,6.8692141Z" fill-rule="evenodd" fill="#FFFFFF" fill-opacity="1"/></g></g></svg>