<svg xmlns="http://www.w3.org/2000/svg" xmlns:xlink="http://www.w3.org/1999/xlink" fill="none" version="1.1" width="14" height="21" viewBox="0 0 14 21"><defs><clipPath id="master_svg0_86_18750"><rect x="-1.310819387435913" y="-1.310819387435913" width="16.621638774871826" height="23.621638774871826" rx="0"/></clipPath><linearGradient x1="7" y1="-1" x2="7" y2="23" gradientUnits="userSpaceOnUse" id="master_svg1_25_04983"><stop offset="0%" stop-color="#044E44" stop-opacity="1"/><stop offset="100%" stop-color="#21C675" stop-opacity="1"/></linearGradient></defs><g clip-path="url(#master_svg0_86_18750)"><g><path d="M7.3600001,12.304L3.9280002,19L7.2400002,19L11.032,11.632C11.392,10.936,11.656,10.264,11.848,9.664C12.016001,9.064,12.112,8.4639997,12.112,7.816000000000001L12.112,7.0719995C12.112,5.5360003,11.656,4.3359995,10.768,3.4720001C9.8560009,2.6079998,8.6079998,2.1760006,7,2.1760006C5.4640002,2.1760006,4.24,2.6079998,3.3040001,3.4960003000000004C2.3680000999999997,4.3839998,1.8880001,5.6079998,1.8880001,7.1680002L1.8880001,7.9359999000000006C1.8880001,9.352,2.2720001,10.48,3.0640001,11.296C3.832,12.136,4.8640003,12.544001,6.1600003,12.544001C6.6160002,12.544001,7,12.472,7.3600001,12.304ZM8.440000099999999,9.352C8.0799999,9.736,7.6000004,9.927999,7,9.927999C6.4000001,9.927999,5.9200001,9.736,5.5599999,9.352C5.2000003,8.9919996,5.0320001,8.4639997,5.0320001,7.7679996L5.0320001,7.0240002C5.0320001,6.3280001,5.2000003,5.8000002,5.5599999,5.4159994C5.9200001,5.0319996,6.4000001,4.8400002,7,4.8400002C7.6000004,4.8400002,8.0799999,5.0319996,8.440000099999999,5.4159994C8.776,5.8000002,8.9440002,6.3280001,8.9440002,7L8.9440002,7.791999799999999C8.9440002,8.4639997,8.776,8.9919996,8.440000099999999,9.352Z" fill="url(#master_svg1_25_04983)" fill-opacity="1"/><path d="M5.7705979,12.531169C4.6556439,12.456016,3.7534442,12.050079,3.0639999,11.296C2.2720000000000002,10.48,1.8880001,9.352,1.8880001,7.9359999000000006L1.8880001,7.1680002C1.8880001,5.6079998,2.3680000999999997,4.3839998,3.3039999,3.4960003000000004C4.24,2.6079996,5.4640002,2.1760006,7,2.1760006C8.6079998,2.1760006,9.8560009,2.6079996,10.768,3.4720001C11.656,4.3359995,12.111999,5.5360003,12.111999,7.0719995L12.111999,7.816000000000001C12.111999,8.4639997,12.016001,9.064,11.848,9.663999C11.656,10.264,11.392,10.936,11.032,11.631999L7.2400002,19L3.9280002,19L4.599854,17.68918L6.5738702,13.837777L7.3600001,12.303999C7,12.471999,6.6160002,12.544001,6.1599998,12.544001C6.0274372,12.544001,5.8976364,12.539733,5.7705979,12.531169ZM5.1307697,13.779505L1.7831786,20.310818L8.0396099,20.310818L12.197519,12.231843Q12.735283,11.192176,13.096456,10.063503L13.103786,10.040597L13.110271,10.017437Q13.422818,8.9012051,13.422818,7.815999L13.422818,7.0719995Q13.422818,4.2261667,11.682106,2.5325019Q9.9223289,0.8651812000000001,6.9999981,0.8651812000000001Q4.172484900000001,0.8651812000000001,2.4018147,2.5450485Q0.577180386,4.2761116,0.577180848,7.1680002L0.577180848,7.9359999000000006Q0.577180848,10.604053,2.1097431,12.194849Q3.312675,13.501236,5.1307697,13.779505ZM5.5599999,9.352C5.9200001,9.735999,6.3999996,9.927999,7,9.927999C7.6000004,9.927999,8.0799999,9.735999,8.4399996,9.352C8.776,8.9919996,8.9439993,8.4639997,8.9439993,7.791999799999999L8.9439993,7Q8.9439993,5.9920006,8.4399996,5.4159994C8.0799999,5.0319996,7.6000004,4.8400002,7,4.8400002C6.3999996,4.8400002,5.9200001,5.0319996,5.5599999,5.4159994C5.2000003,5.7999997,5.0320001,6.3279996,5.0320001,7.0240002L5.0320001,7.7679996C5.0320001,8.4639997,5.2000003,8.9919996,5.5599999,9.352ZM7.4681511,6.2968082Q7.3155608,6.1508193,7,6.1508193Q6.6678886,6.1508193,6.5162921,6.3125215Q6.3428192,6.49756,6.3428192,7.0240002L6.3428192,7.7679996Q6.3428192,8.2810402,6.4868913,8.4251137L6.5018349,8.4400578L6.5162888,8.4554749Q6.6678877,8.6171799,7,8.6171799Q7.3309207,8.6171799,7.4826198,8.4566345Q7.6331806,8.2938213,7.6331806,7.791999799999999L7.6331806,7Q7.6331806,6.5059767,7.4681511,6.2968082Z" fill-rule="evenodd" fill="#FFFFFF" fill-opacity="1"/></g></g></svg>