<?xml version="1.0" standalone="no"?><!DOCTYPE svg PUBLIC "-//W3C//DTD SVG 1.1//EN" "http://www.w3.org/Graphics/SVG/1.1/DTD/svg11.dtd"><svg t="1767164543115" class="icon" viewBox="0 0 1024 1024" version="1.1" xmlns="http://www.w3.org/2000/svg" p-id="26838" xmlns:xlink="http://www.w3.org/1999/xlink" width="200" height="200"><path d="M512 170.666667a341.333333 341.333333 0 0 1 209.493333 71.68L512 451.84 451.84 512 512 572.16l209.493333 209.493333A341.333333 341.333333 0 1 1 512 170.666667m0-85.333334a426.666667 426.666667 0 1 0 301.653333 728.32c10.24-10.24 19.626667-20.906667 28.586667-31.573333L572.16 512l270.08-270.08c-8.96-10.666667-18.346667-21.333333-28.586667-31.573333A426.666667 426.666667 0 0 0 512 85.333333z" fill="#F84E06" p-id="26839"></path><path d="M832 512m-64 0a64 64 0 1 0 128 0 64 64 0 1 0-128 0Z" fill="#F84E06" opacity=".6" p-id="26840"></path><path d="M512 320h-64V256h-42.666667v64H341.333333v42.666667h64V426.666667h42.666667V362.666667H512v-42.666667z" fill="#F84E06" opacity=".6" p-id="26841"></path></svg>