<svg xmlns="http://www.w3.org/2000/svg" xmlns:xlink="http://www.w3.org/1999/xlink" fill="none" version="1.1" width="11" height="18" viewBox="0 0 11 18"><defs><linearGradient x1="5.5" y1="-2" x2="5.5" y2="20" gradientUnits="userSpaceOnUse" id="master_svg0_46_17589"><stop offset="13.39285671710968%" stop-color="#EEC00B" stop-opacity="1"/><stop offset="82.67857432365417%" stop-color="#E07715" stop-opacity="1"/><stop offset="100%" stop-color="#E01515" stop-opacity="1"/></linearGradient></defs><g><path d="M2.4400001,15.280000999999999C3.1399999,15.899999999999999,4.1399999,16.219999,5.4400001,16.219999C6.2199998,16.219999,6.9400001,16.059999,7.5599999,15.719999000000001C8.1800003,15.399999999999999,8.6800003,14.940000999999999,9.0199995,14.34C9.3599997,13.74,9.54,13.04,9.54,12.22L9.54,11.84C9.54,11.059999,9.3800001,10.4,9.0799999,9.860001C8.7600002,9.32,8.2999992,8.92,7.6999998,8.66C8.2199993,8.38,8.6199999,8,8.8999996,7.5200005C9.1800003,7.0600004,9.3199997,6.5200005,9.3199997,5.9200001L9.3199997,5.6199999C9.3199997,4.5200005,8.9799995,3.6199999,8.2799997,2.96C7.5799999,2.3000002000000004,6.6399999,1.9800005,5.4200001,1.9800005C4.1800003,1.9800005,3.22,2.3000002000000004,2.52,2.9400005C1.8200001,3.6000004,1.46,4.5,1.46,5.6599998L1.46,6L3.8599999,6L3.8599999,5.6599998C3.8599999,5.1999998,3.98,4.8400002,4.2399998,4.5799999C4.5,4.3200006,4.8600001,4.1999998,5.3199997,4.1999998C5.7799997,4.1999998,6.1399999,4.3400002,6.4000001,4.6199999C6.6599998,4.9200001,6.7799997,5.3200006,6.7799997,5.8200006L6.7799997,6.1199999C6.7799997,6.6400003000000005,6.6399999,7.039999999999999,6.3600001,7.3400002C6.0799999,7.6400003000000005,5.6799998,7.779999699999999,5.1799998,7.779999699999999L4.5,7.779999699999999L4.5,10L5.1999998,10C5.7799997,10,6.2399998,10.16,6.54,10.48C6.8399997,10.8,7,11.26,7,11.860001L7,12.22C7,12.76,6.8599997,13.2,6.5799999,13.52C6.2799997,13.84,5.9000001,14,5.4000001,14C4.8800001,14,4.48,13.88,4.2200003,13.62C3.9400001,13.38,3.8,13.02,3.8,12.54L3.8,12.24L1.36,12.24L1.36,12.66C1.36,13.8,1.72,14.66,2.4400001,15.280000999999999Z" fill="url(#master_svg0_46_17589)" fill-opacity="0.9200000166893005"/><path d="M0.36000004,12.66Q0.36000004,14.804587999999999,1.7822119,16.03323Q3.1266222,17.220001,5.4400001,17.220001Q6.8973198,17.220001,8.0297928,16.602848Q9.2444563,15.972248,9.8900223,14.833012Q10.54,13.685993,10.54,12.219997L10.54,11.84Q10.54,10.428871,9.9541578,9.374357L9.9473934,9.362182L9.9402924,9.3502Q9.6911945,8.929848,9.359807,8.59444Q9.5853062,8.329825,9.7637796,8.02387Q10.32,7.110417399999999,10.32,5.9200001L10.32,5.6199999Q10.32,3.5090269999999997,8.966013,2.2324108999999996Q7.6376996,0.9800005,5.4200025,0.9799997999999999Q3.1817608,0.9800005,1.8452305,2.2019719999999996Q0.46000013,3.5078845000000003,0.46000007,5.6599998L0.46000007,7.000000999999999L3.5000002,7.000000999999999L3.5000002,11L5.1999998,11Q5.6567683,11,5.810463,11.163941Q6.0000005,11.366116,6.0000005,11.860001L6.0000005,12.22Q6.0000005,12.64973,5.8385296,12.848328Q5.6854453,13.000001,5.4000001,13.000001Q5.0142145,13.000001,4.9271083,12.912894L4.8999505,12.885736L4.870791,12.860743Q4.8000002,12.800065,4.8000002,12.540002L4.8000002,11.240001L0.36000004,11.240001L0.36000004,12.66ZM6.5800004,13.52C6.2799997,13.840001,5.9000001,14,5.4000001,14C4.8800006,14,4.4800005,13.880001,4.2200003,13.62Q3.8000002,13.260001,3.8,12.540001L3.8,12.24L1.36,12.24L1.36,12.66C1.36,12.862056,1.3713093,13.055314,1.3939277,13.24C1.4989229,14.097314999999998,1.8476137,14.76989,2.4400003,15.280000999999999C3.1399999,15.899999999999999,4.1399999,16.220001,5.4400001,16.220001C6.2200003,16.220001,6.9400001,16.059999,7.5599999,15.719999000000001C8.1800003,15.399999999999999,8.6800003,14.940000999999999,9.0199995,14.34C9.3599997,13.74,9.54,13.040001,9.54,12.22L9.54,11.84C9.54,11.059999,9.3800011,10.400001,9.0799999,9.860002C8.9491425,9.639178,8.7948723,9.441766,8.6171923,9.267767C8.3603716,9.016268,8.0546408,8.813678,7.6999998,8.66C8.0408144,8.476484,8.3300819,8.250012,8.5678015,7.980582200000001C8.6927834,7.838929200000001,8.8035164,7.685401000000001,8.8999996,7.5200005C9.1800003,7.0600004,9.3199997,6.5200005,9.3199997,5.9200006L9.3199997,5.6199999C9.3199997,4.5200005,8.9799995,3.6199999,8.2799997,2.96C7.5799999,2.3000002000000004,6.6400003,1.9800007000000002,5.4200001,1.9800007000000002C4.1800003,1.9800007000000002,3.22,2.3000002000000004,2.52,2.9400009999999996C1.9589053,3.4690328,1.6162621,4.152266,1.5023708,5.0000005C1.4741757,5.2098665,1.46,5.4298143,1.46,5.6599998L1.46,6L3.8599999,6L3.8599999,5.6599998C3.8599999,5.1999998,3.9800003,4.8400002,4.2399998,4.5800004C4.5000005,4.3200006,4.8600006,4.2000003,5.3200002,4.2000003Q6.0100002,4.2000003,6.4000001,4.6200004C6.6600003,4.9200001,6.7799997,5.3200006,6.7799997,5.8200011L6.7799997,6.1199999C6.7799997,6.6400003000000005,6.6400003,7.040000900000001,6.3600001,7.3400011C6.0799999,7.6400003000000005,5.6799998,7.779999699999999,5.1799998,7.779999699999999L4.5000005,7.779999699999999L4.5000005,10L5.1999998,10C5.7800002,10,6.2399998,10.16,6.5400004,10.48C6.8399997,10.8,7.0000005,11.26,7.0000005,11.860001L7.0000005,12.22C7.0000005,12.760001,6.8599997,13.2,6.5800004,13.52ZM5.6562958,5.2895527Q5.5597596,5.1999998,5.3200002,5.1999998Q5.034214,5.1999998,4.9471068,5.2871065Q4.8600001,5.3742137,4.8600001,5.6599998L4.8600001,6.779999699999999L5.1799998,6.779999699999999Q5.5147815,6.779999699999999,5.6289444,6.6576834Q5.7800002,6.4958382,5.7800002,6.1199999L5.7800002,5.8200011Q5.7800002,5.4490485,5.6562958,5.2895527Z" fill-rule="evenodd" fill="#FFFFFF" fill-opacity="1"/></g></svg>