<svg xmlns="http://www.w3.org/2000/svg" xmlns:xlink="http://www.w3.org/1999/xlink" fill="none" version="1.1" width="11" height="18" viewBox="0 0 11 18"><defs><linearGradient x1="5.5" y1="-2" x2="5.5" y2="20" gradientUnits="userSpaceOnUse" id="master_svg0_46_17589"><stop offset="13.39285671710968%" stop-color="#EEC00B" stop-opacity="1"/><stop offset="82.67857432365417%" stop-color="#E07715" stop-opacity="1"/><stop offset="100%" stop-color="#E01515" stop-opacity="1"/></linearGradient></defs><g><path d="M5.8000002,10.42L2.9400001,16L5.6999998,16L8.8599997,9.860001C9.1599998,9.280001,9.3800001,8.72,9.54,8.22C9.6800003,7.720000300000001,9.7600002,7.220000300000001,9.7600002,6.6800003L9.7600002,6.0600004C9.7600002,4.7800007,9.3800001,3.7800007000000004,8.6400003,3.0600004C7.8800001,2.3400002000000004,6.8400002,1.9800005,5.5,1.9800005C4.2200003,1.9800005,3.2,2.3400002000000004,2.4200001,3.0799999C1.6400001,3.8200006,1.2400001,4.8400002,1.2400001,6.1400003000000005L1.2400001,6.779999699999999C1.2400001,7.960000000000001,1.5600002,8.9,2.2200003,9.58C2.8600001,10.280001,3.72,10.62,4.8000002,10.62C5.1799998,10.62,5.5,10.559999,5.8000002,10.42ZM6.6999998,7.960000000000001C6.4000001,8.280001,6,8.440001,5.5,8.440001C5,8.440001,4.5999999,8.280001,4.3000002,7.960000000000001C4,7.6599998,3.8600001,7.220000300000001,3.8600001,6.6400003000000005L3.8600001,6.0200005C3.8600001,5.4400005,4,5,4.3000002,4.6800003C4.5999999,4.3600006,5,4.1999998,5.5,4.1999998C6,4.1999998,6.4000001,4.3600006,6.6999998,4.6800003C6.98,5,7.1199999,5.4400005,7.1199999,6L7.1199999,6.6599998C7.1199999,7.220000300000001,6.98,7.6599998,6.6999998,7.960000000000001Z" fill="url(#master_svg0_46_17589)" fill-opacity="0.9200000166893005"/><path d="M4.5763583,10.614992C3.6006374,10.570619,2.8151848,10.230984,2.2200003,9.580001C1.5600003,8.9,1.2400001,7.960001,1.2400001,6.779999699999999L1.2400001,6.1400003000000005C1.2400001,4.8400002,1.6400001,3.8200011,2.4200001,3.0799999C3.2,2.3400005999999998,4.2200003,1.9800007000000002,5.5,1.9800007000000002C6.8400002,1.9800007000000002,7.8800001,2.3400005999999998,8.6400003,3.0600004C9.3800001,3.7800007000000004,9.7600002,4.7800007,9.7600002,6.0600004L9.7600002,6.680001300000001C9.7600002,7.220000300000001,9.6800003,7.720000300000001,9.5400009,8.22C9.3800001,8.72,9.1599998,9.280002,8.8599997,9.860001L5.6999998,16L2.9400001,16L3.4525449,15L5.1947827,11.600809L5.8000007,10.42C5.5,10.559999,5.1800003,10.62,4.8000002,10.62C4.7243743,10.62,4.649827,10.618334,4.5763583,10.614992ZM4.0837688,11.576058L1.303755,17L6.3100076,17L9.7491531,10.317611Q10.193809,9.45795,10.492425,8.524777L10.498016,8.507299L10.502965,8.489631Q10.76,7.571649600000001,10.76,6.680001300000001L10.76,6.0600004Q10.76,3.7274694000000004,9.3373556,2.3432746Q7.8984728,0.9800005,5.5000005,0.9800005Q3.1805747,0.9800005,1.7317405,2.3545361Q0.23999982,3.7697787,0.24000007,6.1400003000000005L0.24000007,6.779999699999999Q0.24000007,8.966736,1.4920194,10.265722Q2.5139682,11.376054,4.0837688,11.576058ZM4.3000002,7.960001C4.5999999,8.280001,5.0000005,8.440001,5.5,8.440001C6,8.440001,6.4000001,8.280001,6.7000003,7.960001C6.98,7.6599998,7.1200004,7.220000300000001,7.1200004,6.660000800000001L7.1200004,6C7.1200004,5.4400005,6.98,5,6.7000003,4.6800008C6.4000001,4.3600006,6,4.1999998,5.5,4.1999998C5.0000005,4.1999998,4.5999999,4.3600006,4.3000002,4.6800008C4,5,3.8600004,5.4400005,3.8600004,6.0200005L3.8600004,6.6400003000000005C3.8600004,7.220000300000001,4,7.6599998,4.3000002,7.960001ZM5.9585629,5.3517361Q6.1199999,5.5509677,6.1199999,6L6.1199999,6.660000800000001Q6.1199999,7.1135521,5.9704556,7.2760525000000005Q5.9700823,7.2764644999999994,5.9697013,7.2768698Q5.9693203,7.2772741,5.9689384,7.277677499999999Q5.8151999,7.440001499999999,5.5,7.440001499999999Q5.1832328,7.440001499999999,5.0295372,7.276059200000001L5.0185094,7.2642956000000005L5.0071073,7.2528954Q4.8600001,7.105787299999999,4.8600001,6.6400003000000005L4.8600001,6.0200005Q4.8600001,5.5447817,5.0295367,5.3639426Q5.1832328,5.1999998,5.5,5.1999998Q5.8047438,5.1999998,5.9585629,5.3517361Z" fill-rule="evenodd" fill="#FFFFFF" fill-opacity="1"/></g></svg>