<svg xmlns="http://www.w3.org/2000/svg" xmlns:xlink="http://www.w3.org/1999/xlink" fill="none" version="1.1" width="11" height="18" viewBox="0 0 11 18"><defs><linearGradient x1="5.5" y1="-2" x2="5.5" y2="20" gradientUnits="userSpaceOnUse" id="master_svg0_46_17589"><stop offset="13.39285671710968%" stop-color="#EEC00B" stop-opacity="1"/><stop offset="82.67857432365417%" stop-color="#E07715" stop-opacity="1"/><stop offset="100%" stop-color="#E01515" stop-opacity="1"/></linearGradient></defs><g><path d="M2.5900002,15.32C3.2900002,15.920000000000002,4.23,16.219999,5.4300003,16.219999C6.6900001,16.219999,7.6900001,15.860001,8.4099998,15.16C9.1100006,14.459999,9.4699993,13.46,9.4699993,12.2L9.4699993,10.9C9.4699993,9.620001,9.1700001,8.64,8.5900002,7.9400005C7.9900002,7.2600002,7.1100001,6.920000099999999,5.9500003,6.920000099999999C5.1700001,6.920000099999999,4.5300002,7.1400003000000005,3.9900002,7.5600004L3.9900002,4.4400005L9.1900005,4.4400005L9.1900005,2.2000007999999998L1.7300001,2.2000007999999998L1.7300001,10.059999L3.9900002,10.059999C4.2700002,9.440001,4.75,9.120001,5.4100003,9.120001C5.9300003,9.120001,6.3099999,9.280001,6.5700002,9.58C6.8099999,9.9,6.9299998,10.38,6.9299998,11.04L6.9299998,12.08C6.9299998,12.7,6.8099999,13.18,6.5700002,13.5C6.3099999,13.84,5.9300003,14,5.4300003,14C4.9700003,14,4.5900002,13.88,4.330000200000001,13.64C4.0700002,13.4,3.9300001,13.06,3.9300001,12.64L3.9300001,12.52L1.5300002,12.52L1.5300002,12.82C1.5300002,13.88,1.8900002,14.719999000000001,2.5900002,15.32Z" fill="url(#master_svg0_46_17589)" fill-opacity="0.9200000166893005"/><path d="M0.53000024,12.82Q0.53000024,14.871362999999999,1.9392089,16.079256Q3.2700741,17.219999,5.4300003,17.219999Q7.7257042,17.219999,9.1070786,15.876997Q10.4699993,14.514213999999999,10.4699993,12.2L10.4699993,10.9Q10.4699993,8.64161,9.3600216,7.3019818999999995L9.3501129,7.2900238L9.339838,7.2783785000000005Q8.141269699999999,5.9200001,5.9500012,5.9200001Q5.4477506,5.9200001,4.9900002,6.017931900000001L4.9900002,5.440001L10.1900005,5.440001L10.1900005,1.2000008000000002L0.73000015,1.2000008000000002L0.73000015,11.059999L4.6356354,11.059999L4.9013705,10.471587Q5.0601521,10.120001,5.4100003,10.120001Q5.6840982,10.120001,5.7922325,10.213002Q5.9299998,10.439943,5.9299998,11.04L5.9299998,12.08Q5.9299998,12.686667,5.7699995,12.900001Q5.6934743,13,5.4300003,13Q5.1109838,13,5.0082812,12.905197Q4.9300003,12.832938,4.9300003,12.640001L4.9300003,11.52L0.53000024,11.52L0.53000024,12.82ZM6.5700002,9.58C6.8099999,9.9,6.9299998,10.380001,6.9299998,11.04L6.9299998,12.08C6.9299998,12.7,6.8099999,13.18,6.5700002,13.5C6.3099999,13.84,5.9300003,14,5.4300003,14C4.9700003,14,4.5900002,13.88,4.330000200000001,13.64C4.0700002,13.4,3.9300003,13.060001,3.9300003,12.640001L3.9300003,12.52L1.5300002,12.52L1.5300002,12.82C1.5300002,13.065187,1.5492615,13.298603,1.5875366,13.520001C1.7147335,14.255758,2.0519162,14.858785999999998,2.5900002,15.32C3.2900002,15.920000000000002,4.23,16.219999,5.4300003,16.219999C6.6900005,16.219999,7.6900001,15.860001,8.4099998,15.16C9.1100006,14.459999,9.4699993,13.46,9.4699993,12.2L9.4699993,10.9C9.4699993,9.620001,9.1700001,8.64,8.5900002,7.9400005Q7.690001,6.920000099999999,5.9500003,6.920000099999999C5.6035485,6.920000099999999,5.2847166,6.9634027,4.9900002,7.0484562C4.6211925,7.154892,4.2901487,7.3265514,3.9900002,7.5600004L3.9900002,4.440001L9.1900005,4.440001L9.1900005,2.2000007999999998L1.7300001,2.2000007999999998L1.7300001,10.059999L3.9900002,10.059999C4.2700002,9.440001,4.75,9.120001,5.4100003,9.120001C5.9300003,9.120001,6.3099999,9.280001,6.5700002,9.58Z" fill-rule="evenodd" fill="#FFFFFF" fill-opacity="1"/></g></svg>