<svg xmlns="http://www.w3.org/2000/svg" xmlns:xlink="http://www.w3.org/1999/xlink" fill="none" version="1.1" width="11" height="18" viewBox="0 0 11 18"><defs><linearGradient x1="5.5" y1="-2" x2="5.5" y2="20" gradientUnits="userSpaceOnUse" id="master_svg0_46_17589"><stop offset="13.39285671710968%" stop-color="#EEC00B" stop-opacity="1"/><stop offset="82.67857432365417%" stop-color="#E07715" stop-opacity="1"/><stop offset="100%" stop-color="#E01515" stop-opacity="1"/></linearGradient></defs><g><path d="M2.4000001,15.02C3.0599999,15.82,4.1000004,16.219999,5.5,16.219999C6.9000001,16.219999,7.9400001,15.82,8.6199999,15.02C9.2799997,14.219999000000001,9.6199999,13.04,9.6199999,11.46L9.6199999,6.579999900000001C9.6199999,5.0600004,9.2799997,3.9200001,8.6199999,3.1400002999999996C7.9400001,2.3600006000000002,6.9000001,1.9800005,5.5,1.9800005C4.1599998,1.9800005,3.1400001,2.3600006000000002,2.4400001,3.1400002999999996C1.7400001,3.9200001,1.3800001,5.0799999,1.3800001,6.579999900000001L1.3800001,11.46C1.3800001,13.04,1.72,14.239999999999998,2.4000001,15.02ZM6.6999998,13.32C6.48,13.74,6.0799999,13.940001,5.5,13.940001C4.9200001,13.940001,4.54,13.74,4.3400002,13.32C4.1199999,12.92,4.02,12.22,4.02,11.24L4.02,6.960000000000001C4.02,5.9800005,4.1199999,5.2800007,4.3199997,4.8800001C4.52,4.4800005,4.9200001,4.2800007,5.5,4.2800007C6.0799999,4.2800007,6.48,4.4800005,6.6999998,4.8800001C6.9000001,5.2800007,7,5.9800005,7,6.960000000000001L7,11.24C7,12.22,6.9000001,12.92,6.6999998,13.32Z" fill="url(#master_svg0_46_17589)" fill-opacity="0.9200000166893005"/><path d="M1.6372933,15.666853Q0.38000008,14.214925999999998,0.38000008,11.46L0.38000044,6.579999900000001Q0.38000008,3.9382210000000004,1.695758,2.4720902000000002Q3.0348136,0.9800005,5.500001,0.9800011999999998Q8.0635834,0.9800005,9.3833866,2.4940581Q10.620001,3.9555116000000003,10.620001,6.579999900000001L10.620001,11.46Q10.620001,14.167137,9.3819399,15.667648Q8.0624409,17.219999,5.5,17.219999Q2.9272618,17.219999,1.6372933,15.666853ZM2.4000001,15.02C3.0599999,15.820001999999999,4.1000004,16.220001,5.5,16.220001Q7.6000004,16.220001,8.6200008,15.02C9.2800007,14.219999000000001,9.6200008,13.04,9.6200008,11.46L9.6200008,6.579999900000001C9.6200008,5.0600004,9.2800007,3.9200006,8.6200008,3.1400002999999996C7.9400001,2.3600006000000002,6.9000001,1.9800005,5.5,1.9800005C4.1599998,1.9800005,3.1400001,2.3600006000000002,2.4400001,3.1400002999999996C1.7400001,3.9200006,1.3800001,5.0799999,1.3800001,6.579999900000001L1.3800001,11.46C1.3800001,13.04,1.72,14.239999999999998,2.4000001,15.02ZM5.5,13.940001C6.0799999,13.940001,6.4800005,13.740001,6.7000003,13.32C6.9000001,12.92,7,12.22,7,11.24L7,6.960001C7,5.980001,6.9000001,5.2800007,6.7000003,4.8800001C6.4800005,4.480001,6.0799999,4.2800007,5.5,4.2800007C4.9200006,4.2800007,4.52,4.480001,4.3199997,4.8800001C4.1199999,5.2800007,4.02,5.980001,4.02,6.960001L4.02,11.24C4.02,12.22,4.1199999,12.92,4.3400002,13.32C4.54,13.740001,4.9200006,13.940001,5.5,13.940001ZM5.8114262,12.860795Q5.7623305,12.940001,5.5,12.940001Q5.2666388,12.940001,5.2428613,12.890067L5.2302976,12.863685L5.2162156,12.83808Q5.0200005,12.481325,5.0200009,11.240001L5.0200005,6.960001Q5.0200005,5.7160678,5.214427,5.3272147Q5.2380338,5.2800007,5.5,5.2800007Q5.7620788,5.2800007,5.8175673,5.3524246Q6,5.7550559,6,6.960001L6,11.24Q6,12.465067,5.8114262,12.860795Z" fill-rule="evenodd" fill="#FFFFFF" fill-opacity="1"/></g></svg>