<svg xmlns="http://www.w3.org/2000/svg" xmlns:xlink="http://www.w3.org/1999/xlink" fill="none" version="1.1" width="11" height="18" viewBox="0 0 11 18"><defs><linearGradient x1="5.5" y1="-2" x2="5.5" y2="20" gradientUnits="userSpaceOnUse" id="master_svg0_46_17589"><stop offset="13.39285671710968%" stop-color="#EEC00B" stop-opacity="1"/><stop offset="82.67857432365417%" stop-color="#E07715" stop-opacity="1"/><stop offset="100%" stop-color="#E01515" stop-opacity="1"/></linearGradient></defs><g><path d="M2.3800001,15.139999C3.1200001,15.860001,4.1599998,16.219999,5.5,16.219999C6.7800002,16.219999,7.8200002,15.860001,8.6000004,15.120000999999998C9.3800001,14.379999000000002,9.7600002,13.360001,9.7600002,12.06L9.7600002,11.42C9.7600002,10.24,9.4399996,9.3,8.8000002,8.6C8.1399994,7.920000099999999,7.2800002,7.579999900000001,6.1999998,7.579999900000001C5.8200002,7.579999900000001,5.5,7.6400003000000005,5.1999998,7.779999699999999L8.0599995,2.2000007999999998L5.3000002,2.2000007999999998L2.1400001,8.34C1.8400002,8.92,1.6200001,9.46,1.4800001,9.96C1.3200002,10.46,1.2400001,10.98,1.2400001,11.52L1.2400001,12.14C1.2400001,13.42,1.6200001,14.420000000000002,2.3800001,15.139999ZM6.6999998,13.52C6.4000001,13.84,6,14,5.5,14C5,14,4.5999999,13.84,4.3200002,13.52C4.02,13.2,3.8800001,12.76,3.8800001,12.2L3.8800001,11.54C3.8800001,10.98,4.02,10.54,4.3200002,10.22C4.5999999,9.92,5,9.76,5.5,9.76C6,9.76,6.4000001,9.92,6.6999998,10.22C7,10.54,7.1399999,10.98,7.1399999,11.559999L7.1399999,12.18C7.1399999,12.76,7,13.2,6.6999998,13.52Z" fill="url(#master_svg0_46_17589)" fill-opacity="0.9200000166893005"/><path d="M0.24000007,12.140001Q0.24000007,14.486232999999999,1.6874381,15.861381999999999Q3.0879159,17.219999,5.5,17.219999Q7.839426,17.219999,9.2882605,15.845465Q10.76,14.449197999999999,10.76,12.060001L10.76,11.42Q10.76,9.261765,9.5380306,7.925232899999999L9.5279665,7.9142256L9.517581,7.9035244Q8.4671192,6.8212318,6.9162178,6.6239691L9.6962442,1.2000008000000002L4.6899924,1.2000008000000002L1.2508469,7.882391Q0.75980109,8.831741,0.52196997,9.672835Q0.24000007,10.563361,0.24000007,11.52L0.24000007,12.140001ZM1.4800001,9.96Q1.6900003,9.210001,2.1400001,8.340001L5.3000002,2.2000007999999998L8.0599995,2.2000007999999998L7.5474548,3.2000012L5.8052168,6.5991917L5.2000003,7.779999699999999C5.5,7.6400003000000005,5.8200006,7.5800009,6.1999998,7.5800009C6.2756243,7.5800009,6.3501706,7.5816669,6.423645,7.5850019C7.3994594,7.629283900000001,8.1862154,7.967616100000001,8.8000002,8.6C9.4399996,9.3,9.7600002,10.24,9.7600002,11.42L9.7600002,12.06C9.7600002,13.360001,9.3800001,14.379999000000002,8.6000004,15.120000999999998C7.8200002,15.860001,6.7800002,16.220001,5.5,16.220001C4.1599998,16.220001,3.1200004,15.860001,2.3800004,15.139999Q1.2400001,14.060001,1.2400001,12.140001L1.2400001,11.52C1.2400001,10.98,1.3200002,10.460001,1.4800001,9.96ZM4.3200002,13.520001C4.5999999,13.840001,5.0000005,14,5.5,14C6,14,6.4000001,13.840001,6.7000003,13.520001C7,13.2,7.1399999,12.76,7.1399999,12.180001L7.1399999,11.559999C7.1399999,10.98,7,10.540001,6.7000003,10.22C6.4000001,9.92,6,9.76,5.5,9.76C5.0000005,9.76,4.5999999,9.92,4.3200002,10.22C4.02,10.540001,3.8800004,10.98,3.8800004,11.54L3.8800004,12.200001C3.8800004,12.76,4.02,13.2,4.3200002,13.520001ZM6.1399999,12.180001Q6.1399999,12.65522,5.9704618,12.836061Q5.8167682,13.000001,5.5,13.000001Q5.1937685,13.000001,5.0725765,12.861496L5.0612755,12.84858L5.0495381,12.836061Q4.8800001,12.65522,4.8800001,12.200001L4.8800001,11.54Q4.8800001,11.084782,5.0495372,10.903942Q5.1838856,10.76,5.5,10.76Q5.8142023,10.76,5.9808073,10.915433Q6.1399999,11.099511,6.1399999,11.559999L6.1399999,12.180001Z" fill-rule="evenodd" fill="#FFFFFF" fill-opacity="1"/></g></svg>