<svg xmlns="http://www.w3.org/2000/svg" xmlns:xlink="http://www.w3.org/1999/xlink" fill="none" version="1.1" width="11" height="18" viewBox="0 0 11 18"><defs><linearGradient x1="5.5" y1="-2" x2="5.5" y2="20" gradientUnits="userSpaceOnUse" id="master_svg0_46_17589"><stop offset="13.39285671710968%" stop-color="#EEC00B" stop-opacity="1"/><stop offset="82.67857432365417%" stop-color="#E07715" stop-opacity="1"/><stop offset="100%" stop-color="#E01515" stop-opacity="1"/></linearGradient></defs><g><path d="M6.1100001,7.980000499999999L1.5300002,13.92L1.5300002,16L9.5300007,16L9.5300007,13.7L4.8299999,13.7L8.27,9.24C8.6900005,8.700001,8.9899998,8.18,9.2099991,7.6800003C9.4300003,7.1800003,9.5300007,6.6199999,9.5300007,6.0200005L9.5300007,5.6800003C9.5300007,5,9.3700008,4.3800001,9.0499992,3.8200006C8.7099991,3.2600002000000003,8.25,2.8200006,7.6500001,2.4800005C7.0300002,2.1400002999999996,6.3299999,1.9800005,5.5300002,1.9800005C4.71,1.9800005,3.99,2.1400002999999996,3.3700001,2.46C2.7500002,2.7800007000000004,2.2900001000000003,3.2200002999999997,1.9700001,3.7800007000000004C1.6300001,4.3400002,1.47000015,4.9800005,1.47000015,5.6999998L1.47000015,6.1800003L4.01,6.1800003L4.01,5.8600006C4.01,5.3400002,4.1300001,4.9400005,4.3900001,4.6400003C4.6500001,4.3400002,4.9900002,4.1999998,5.4299998,4.1999998C5.8699999,4.1999998,6.23,4.3400002,6.4900002,4.6199999C6.75,4.9000006,6.8699999,5.2800007,6.8699999,5.7600002L6.8699999,6.039999999999999C6.8699999,6.6599998,6.6100001,7.3000001999999995,6.1100001,7.980000499999999Z" fill="url(#master_svg0_46_17589)" fill-opacity="0.9200000166893005"/><path d="M5.3107953,7.3788252Q5.8700004,6.6150188,5.8700004,6.039999999999999L5.8700004,5.7600007Q5.8700004,5.4219217,5.7572074,5.3004513Q5.6639309,5.1999998,5.4299998,5.1999998Q5.227963,5.1999998,5.1456895,5.2949314Q5.0100002,5.4514961,5.0100002,5.8600011L5.0100002,7.1800003L0.47000016099999997,7.1800003L0.47000016099999997,5.6999998Q0.47000022,4.3310819,1.1083326900000001,3.2723942Q1.7388206,2.1765609,2.9113576,1.5713792Q4.0571556,0.9800005,5.5300002,0.9800011999999998Q6.9944315,0.9800002999999999,8.143013,1.6099787Q9.2636251,2.2449923,9.9047861,3.3010225L9.911665,3.3123522000000003L9.9182405,3.3238597Q10.530001,4.3944349,10.530001,5.6800008L10.530001,6.0200014Q10.530001,7.163001100000001,10.1253157,8.082737Q9.719367,9.005352,9.0618315,9.85074L6.8641963,12.700001L10.530001,12.700001L10.530001,17L0.530000199,17L0.530000139,13.579243L5.3107953,7.3788252ZM6.1100001,7.980000499999999L1.5300002,13.92L1.5300002,16L9.5300016,16L9.5300016,13.700001L4.8299999,13.700001L5.6013007,12.700001L8.2700005,9.240001C8.6900005,8.700001,8.9900007,8.18,9.2099991,7.6800003C9.4300003,7.180001300000001,9.5300016,6.6199999,9.5300016,6.0200005L9.5300016,5.6800008Q9.5300016,4.6600003,9.0499992,3.8200006C8.7099991,3.2600002000000003,8.25,2.8200006,7.6500001,2.4800005C7.0300002,2.1400002999999996,6.3299999,1.9800005,5.5300007,1.9800005Q4.3,1.9800005,3.3700001,2.46C2.7500002,2.7800007000000004,2.2900001999999997,3.2200002999999997,1.9700003,3.7800007000000004C1.7141671,4.2013726,1.5602466,4.6680393,1.49971837,5.1800003C1.47980511,5.3484306,1.47000021,5.5217638,1.47000021,5.6999998L1.47000021,6.1800003L4.01,6.1800003L4.01,5.8600011C4.01,5.3400006,4.1300004,4.9400005,4.3900003000000005,4.6400003C4.6500001,4.3400002,4.9900002,4.1999998,5.4299998,4.1999998C5.8700004,4.1999998,6.23,4.3400002,6.4900002,4.6199999C6.75,4.9000006,6.8699999,5.2800007,6.8699999,5.7600007L6.8699999,6.039999999999999C6.8699999,6.6599998,6.6100001,7.3000001999999995,6.1100001,7.980000499999999Z" fill-rule="evenodd" fill="#FFFFFF" fill-opacity="1"/></g></svg>