<svg xmlns="http://www.w3.org/2000/svg" xmlns:xlink="http://www.w3.org/1999/xlink" fill="none" version="1.1" width="11" height="18" viewBox="0 0 11 18"><defs><linearGradient x1="5.5" y1="-2" x2="5.5" y2="20" gradientUnits="userSpaceOnUse" id="master_svg0_46_17589"><stop offset="13.39285671710968%" stop-color="#EEC00B" stop-opacity="1"/><stop offset="82.67857432365417%" stop-color="#E07715" stop-opacity="1"/><stop offset="100%" stop-color="#E01515" stop-opacity="1"/></linearGradient></defs><g><path d="M9.4700003,4.4800005L9.4700003,2.2000007999999998L1.5300002,2.2000007999999998L1.5300002,4.4800005L6.9100003,4.4800005L2.6300001,16L5.27,16L9.4700003,4.4800005Z" fill="url(#master_svg0_46_17589)" fill-opacity="0.9200000166893005"/><path d="M5.9698043,17L10.4700003,4.6566067L10.4700003,1.2000009999999999L0.530000243,1.2000009999999999L0.530000243,5.480001L5.4716859,5.480001L1.19168603,17L5.9698043,17ZM5.843214,4.4800005L6.9100003,4.4800005L6.5384722,5.480001L3.0015278,15L2.6300001,16L5.2700005,16L9.4700003,4.4800005L9.4700003,2.2000012L1.5300002,2.2000012L1.5300002,4.4800005L5.843214,4.4800005Z" fill-rule="evenodd" fill="#FFFFFF" fill-opacity="1"/></g></svg>