<svg xmlns="http://www.w3.org/2000/svg" xmlns:xlink="http://www.w3.org/1999/xlink" fill="none" version="1.1" width="11" height="18" viewBox="0 0 11 18"><defs><linearGradient x1="5.5" y1="-2" x2="5.5" y2="20" gradientUnits="userSpaceOnUse" id="master_svg0_46_17589"><stop offset="13.39285671710968%" stop-color="#EEC00B" stop-opacity="1"/><stop offset="82.67857432365417%" stop-color="#E07715" stop-opacity="1"/><stop offset="100%" stop-color="#E01515" stop-opacity="1"/></linearGradient></defs><g><path d="M2.73999995,6.779999699999999L5.0599999,5.1000004L5.0599999,16L7.6799998,16L7.6799998,2.2000007999999998L5.0599999,2.2000007999999998L2.73999995,3.9400005L2.73999995,6.779999699999999Z" fill="url(#master_svg0_46_17589)" fill-opacity="0.9200000166893005"/><path d="M1.73999995,3.4400005L1.73999995,8.738793L3.3265097,7.589942000000001L4.0599999,7.058794000000001L4.0599999,17L8.6800003,17L8.6800003,1.2000004999999998L4.7266665,1.2000004999999998L1.73999995,3.4400005ZM4.0599999,5.8241382L5.0599999,5.1000004L5.0599999,16L7.6799998,16L7.6799998,2.2000007999999998L5.0599999,2.2000007999999998L2.73999995,3.9400001L2.73999995,6.779999699999999L3.7399999,6.0558624000000005L4.0599999,5.8241382Z" fill-rule="evenodd" fill="#FFFFFF" fill-opacity="1"/></g></svg>