<svg xmlns="http://www.w3.org/2000/svg" xmlns:xlink="http://www.w3.org/1999/xlink" fill="none" version="1.1" width="11" height="18" viewBox="0 0 11 18"><defs><linearGradient x1="5.5" y1="-2" x2="5.5" y2="20" gradientUnits="userSpaceOnUse" id="master_svg0_46_17589"><stop offset="13.39285671710968%" stop-color="#EEC00B" stop-opacity="1"/><stop offset="82.67857432365417%" stop-color="#E07715" stop-opacity="1"/><stop offset="100%" stop-color="#E01515" stop-opacity="1"/></linearGradient></defs><g><path d="M3.3099999,15.719999000000001C3.9499998,16.059999,4.6700001,16.219999,5.4899998,16.219999C6.3099999,16.219999,7.0299997,16.059999,7.6900001,15.719999000000001C8.3299999,15.399999999999999,8.8299999,14.940000999999999,9.21,14.32C9.5699997,13.7,9.75,13,9.75,12.18L9.75,11.72C9.75,11.12,9.6099997,10.559999,9.3299999,10.02C9.0299997,9.5,8.6300001,9.08,8.0900002,8.76C8.5100002,8.5,8.8499994,8.14,9.1099997,7.6800003C9.3699999,7.220000300000001,9.5100002,6.6800003,9.5100002,6.100000400000001L9.5100002,5.7399998C9.5100002,5.0600004,9.3499994,4.4400005,9.0299997,3.8600006000000002C8.71,3.2800007000000004,8.25,2.8200006,7.6499996,2.4800005C7.0299997,2.1400002999999996,6.3299999,1.9800005,5.5099998,1.9800005C4.6900001,1.9800005,3.99,2.1400002999999996,3.3899999,2.4800005C2.79,2.8200006,2.3299999,3.2800007000000004,2.01,3.8600006000000002C1.67,4.4400005,1.51,5.0600004,1.51,5.7399998L1.51,6.100000400000001C1.51,6.6999998000000005,1.65,7.220000300000001,1.91,7.6800003C2.1700001,8.14,2.51,8.5,2.9299998,8.76C2.3899999,9.059999,1.99,9.48,1.6899999,10C1.39,10.54,1.25,11.12,1.25,11.74L1.25,12.2C1.25,13,1.4299999,13.7,1.8099999,14.32C2.1700001,14.940000999999999,2.6699998,15.399999999999999,3.3099999,15.719999000000001ZM6.5899997,7.2600002C6.3299999,7.5600004,5.9699998,7.720000300000001,5.5099998,7.720000300000001C5.0499997,7.720000300000001,4.6900001,7.579999900000001,4.4299998,7.279999699999999C4.1700001,6.980000499999999,4.0299997,6.600000400000001,4.0299997,6.1199999L4.0299997,5.7399998C4.0299997,5.3000002,4.1700001,4.9400005,4.4499998,4.6400003C4.71,4.3400002,5.0699997,4.1999998,5.5099998,4.1999998C5.9499998,4.1999998,6.3099999,4.3400002,6.5899997,4.6400003C6.8499999,4.9400005,6.9899998,5.3000002,6.9899998,5.7399998L6.9899998,6.1199999C6.9899998,6.579999900000001,6.8499999,6.960000000000001,6.5899997,7.2600002ZM6.77,13.5C6.4499998,13.84,6.0299997,14,5.5099998,14C4.9699998,14,4.5499997,13.82,4.25,13.48C3.9499998,13.14,3.79,12.7,3.79,12.16L3.79,11.68C3.79,11.14,3.9499998,10.72,4.27,10.38C4.5899997,10.04,5.0099998,9.88,5.5099998,9.88C6.0299997,9.88,6.4499998,10.04,6.77,10.38C7.0699997,10.72,7.23,11.14,7.23,11.68L7.23,12.16C7.23,12.72,7.0699997,13.16,6.77,13.5Z" fill="url(#master_svg0_46_17589)" fill-opacity="0.9200000166893005"/><path d="M2.8518071,16.608921Q1.6295334,15.99411,0.95119125,14.832405000000001Q0.25000006,13.681841,0.25000006,12.2L0.25000006,11.74Q0.25000006,10.532873,0.82381392,9.500278Q1.0759995,9.063157,1.3987375,8.710374Q1.2025245,8.460598,1.0394369,8.172058Q0.50999993,7.2353611,0.50999993,6.100000400000001L0.50999993,5.7399998Q0.50999987,4.4481373,1.140748,3.3654957000000003Q1.7568692,2.2560458,2.896987,1.6099787Q4.0087128,0.9800005,5.5099993,0.9800011999999998Q6.9944315,0.9800002999999999,8.1430111,1.6099782Q9.2889977,2.2593699000000003,9.9055777,3.3769231Q10.51,4.4724388,10.51,5.7399998L10.51,6.100000400000001Q10.51,7.2353621,9.9805622,8.172059Q9.8141603,8.466463,9.6132717,8.720514Q9.942728,9.080952,10.196185,9.520278L10.207413,9.539739L10.217755,9.559683Q10.75,10.586155,10.75,11.720001L10.75,12.18Q10.75,13.659268,10.074791,14.822133999999998L10.068817,14.832419999999999L10.062601,14.842566000000001Q9.347518,16.009277,8.1479559,16.608974Q6.9618421,17.220001,5.4899998,17.220001Q4.0090542,17.220001,2.8518071,16.608921ZM3.3099999,15.719999000000001C3.9499998,16.059999,4.6700001,16.219999,5.4899998,16.219999C6.3100004,16.219999,7.0299997,16.059999,7.6900001,15.719999000000001C8.3299999,15.399999999999999,8.8299999,14.940000999999999,9.210001,14.32C9.5699997,13.7,9.75,13,9.75,12.18L9.75,11.720001C9.75,11.12,9.6099997,10.559999,9.3299999,10.02C9.2042847,9.802093,9.0610085,9.601747,8.8972273,9.41896C8.6701727,9.165556,8.4037123,8.945904,8.0900002,8.76C8.3851442,8.577291,8.6407824,8.345202,8.8569145,8.06373C8.9483461,7.9446583,9.0327082,7.8167477000000005,9.1099997,7.680001300000001C9.3699999,7.220000300000001,9.5100002,6.6800003,9.5100002,6.100000400000001L9.5100002,5.7399998C9.5100002,5.0600004,9.3499994,4.4400005,9.0299997,3.8600006000000002Q8.5500002,2.9900007000000004,7.6499996,2.4800005C7.0299997,2.1400002999999996,6.3299999,1.9800005,5.5099998,1.9800005C4.6900001,1.9800005,3.99,2.1400002999999996,3.3900001,2.4800005Q2.49,2.9900007000000004,2.01,3.8600006000000002C1.67,4.4400005,1.51,5.0600004,1.51,5.7399998L1.51,6.100000400000001C1.51,6.6999998000000005,1.65,7.220000300000001,1.91,7.680001300000001Q2.0244186,7.8824339000000005,2.1594923,8.059042Q2.4848278,8.484418,2.9299998,8.76C2.6116943,8.936836,2.3420331,9.155368,2.1128232,9.411497C1.9531822,9.589888,1.8131636,9.786516,1.6899999,10C1.39,10.54,1.25,11.12,1.25,11.74L1.25,12.2C1.25,13,1.4299999,13.7,1.8099999,14.32C2.1700001,14.940000999999999,2.6699998,15.399999999999999,3.3099999,15.719999000000001ZM4.4499998,4.6400003C4.1700001,4.940001,4.0299997,5.3000002,4.0299997,5.7399998L4.0299997,6.1199999C4.0299997,6.600000400000001,4.1700001,6.980000499999999,4.4299998,7.279999699999999C4.6900001,7.579999900000001,5.0500002,7.720000300000001,5.5099998,7.720000300000001C5.9699998,7.720000300000001,6.3299999,7.5600004,6.5899997,7.2600012C6.8499999,6.960000000000001,6.9900002,6.579999900000001,6.9900002,6.1199999L6.9900002,5.7399998C6.9900002,5.3000002,6.8499999,4.940001,6.5899997,4.6400003C6.3100004,4.3400002,5.9499998,4.1999998,5.5099998,4.1999998C5.0699997,4.1999998,4.71,4.3400002,4.4499998,4.6400003ZM5.8475375,5.3106937Q5.733346,5.1999998,5.5099998,5.1999998Q5.2879629,5.1999998,5.205689,5.2949309L5.1936245,5.3088517L5.181056,5.3223176Q5.0299997,5.4841633,5.0299997,5.7399998L5.0300002,6.1200008Q5.0299997,6.4454279,5.185689,6.6250687Q5.2679629,6.720000300000001,5.5099998,6.720000300000001Q5.7347045,6.720000300000001,5.8343105,6.6050711Q5.9900002,6.4254283999999995,5.9900002,6.1199999L5.9900002,5.7399998Q5.9900002,5.4860988,5.8475375,5.3106937ZM5.5099998,14C6.0299997,14,6.4499998,13.84,6.77,13.5C7.0699997,13.16,7.23,12.720001,7.23,12.16L7.23,11.68C7.23,11.14,7.0699997,10.72,6.77,10.38C6.4499998,10.040001,6.0299997,9.88,5.5099998,9.88C5.0099998,9.88,4.5899997,10.040001,4.27,10.38C3.9499998,10.72,3.79,11.14,3.79,11.68L3.79,12.16C3.79,12.7,3.9499998,13.140001,4.25,13.48C4.5500002,13.82,4.9700003,14,5.5099998,14ZM6.2300005,12.16Q6.2300005,12.588831,6.031189,12.825569Q5.8566365,13,5.5099998,13Q5.1600924,13,4.9998388,12.818379Q4.7899995,12.580563,4.7899995,12.16L4.79,11.68Q4.79,11.286578,4.9981995,11.065366Q5.1726613,10.879999,5.5099998,10.879999Q5.8567877,10.879999,6.0313382,11.05458Q6.2300005,11.290252,6.2300005,11.68L6.2300005,12.16Z" fill-rule="evenodd" fill="#FFFFFF" fill-opacity="1"/></g></svg>