<svg xmlns="http://www.w3.org/2000/svg" xmlns:xlink="http://www.w3.org/1999/xlink" fill="none" version="1.1" width="11.01953125" height="18" viewBox="0 0 11.01953125 18"><defs><linearGradient x1="5.509765625" y1="-2" x2="5.509765625" y2="20" gradientUnits="userSpaceOnUse" id="master_svg0_46_17589"><stop offset="13.39285671710968%" stop-color="#EEC00B" stop-opacity="1"/><stop offset="82.67857432365417%" stop-color="#E07715" stop-opacity="1"/><stop offset="100%" stop-color="#E01515" stop-opacity="1"/></linearGradient></defs><g><path d="M8.899765025,13.8L10.019764625,13.8L10.019764625,11.5L8.899765025,11.5L8.899765025,8.26L6.279765625,8.26L6.279765625,11.5L3.619765525,11.5L7.559765325,2.2000007999999998L4.939765425,2.2000007999999998L0.999765575,11.5L0.999765575,13.8L6.279765625,13.8L6.279765625,16L8.899765025,16L8.899765025,13.8Z" fill="url(#master_svg0_46_17589)" fill-opacity="0.9200000166893005"/><path d="M8.899765025,13.8L8.899765025,16L6.279765625,16L6.279765625,13.8L0.999765575,13.8L0.999765575,11.5L4.939765425,2.2000007999999998L7.559765325,2.2000007999999998L7.136109325,3.2000007999999998L5.416066625,7.2600002L5.279765625,7.581726099999999L4.043421225,10.5L3.619765525,11.5L6.279765625,11.5L6.279765625,8.26L8.899765025,8.26L8.899765025,11.5L10.019764625,11.5L10.019764625,13.8L8.899765025,13.8ZM9.899765025,14.800001000000002L9.899765025,17L5.279765625,17L5.279765625,14.800001000000002L-0.00023443299999999917,14.800001000000002L-0.00023450000000000033,11.296909L4.277380425,1.2000008000000002L9.069461825,1.2000008000000002L6.502107125,7.2600002L9.899765025,7.2600002L9.899765025,10.5L11.019764625,10.5L11.019764625,14.800001000000002L9.899765025,14.800001000000002ZM5.279765625,10.145222L5.129462225,10.5L5.279765625,10.5L5.279765625,10.145222Z" fill-rule="evenodd" fill="#FFFFFF" fill-opacity="1"/></g></svg>